HIERARCHY
ROOT Hips
{
 OFFSET 0.000000 0.000000 0.000000
 CHANNELS 6 Xposition Yposition Zposition Yrotation Xrotation Zrotation
 JOINT Chest
 {
  OFFSET 0.000000 9.585900 0.002600
  CHANNELS 3 Yrotation Xrotation Zrotation
  JOINT Chest2
  {
   OFFSET 0.000000 9.601200 -0.005300
   CHANNELS 3 Yrotation Xrotation Zrotation
   JOINT Chest3
   {
    OFFSET 0.000000 9.561800 0.000000
    CHANNELS 3 Yrotation Xrotation Zrotation
    JOINT Chest4
    {
     OFFSET 0.000000 9.552100 0.000000
     CHANNELS 3 Yrotation Xrotation Zrotation
     JOINT Neck
     {
      OFFSET 0.000000 14.453000 0.000000
      CHANNELS 3 Yrotation Xrotation Zrotation
      JOINT Head
      {
       OFFSET 0.000000 8.936500 -0.011300
       CHANNELS 3 Yrotation Xrotation Zrotation
       End Site
       {
        OFFSET 0.000000 17.073600 -0.006000
       }
      }
     }
     JOINT RightCollar
     {
      OFFSET -2.921100 9.558500 0.000000
      CHANNELS 3 Yrotation Xrotation Zrotation
      JOINT RightShoulder
      {
       OFFSET -13.519700 0.000000 0.000000
       CHANNELS 3 Yrotation Xrotation Zrotation
       JOINT RightElbow
       {
        OFFSET 0.000000 -29.696600 0.000000
        CHANNELS 3 Yrotation Xrotation Zrotation
        JOINT RightWrist
        {
         OFFSET 0.000000 -24.004700 0.000000
         CHANNELS 3 Yrotation Xrotation Zrotation
         End Site
         {
          OFFSET 0.000000 -17.728500 0.000000
         }
        }
       }
      }
     }
     JOINT LeftCollar
     {
      OFFSET 2.921100 9.558500 0.000000
      CHANNELS 3 Yrotation Xrotation Zrotation
      JOINT LeftShoulder
      {
       OFFSET 13.519700 0.000000 0.000000
       CHANNELS 3 Yrotation Xrotation Zrotation
       JOINT LeftElbow
       {
        OFFSET 0.000000 -29.696600 0.000000
        CHANNELS 3 Yrotation Xrotation Zrotation
        JOINT LeftWrist
        {
         OFFSET 0.000000 -24.004700 0.000000
         CHANNELS 3 Yrotation Xrotation Zrotation
         End Site
         {
          OFFSET 0.000000 -17.728500 0.000000
         }
        }
       }
      }
     }
    }
   }
  }
 }
 JOINT RightHip
 {
  OFFSET -7.771700 -0.012900 -0.001300
  CHANNELS 3 Yrotation Xrotation Zrotation
  JOINT RightKnee
  {
   OFFSET 0.000000 -40.869800 0.001200
   CHANNELS 3 Yrotation Xrotation Zrotation
   JOINT RightAnkle
   {
    OFFSET 0.000000 -39.717900 0.002100
    CHANNELS 3 Yrotation Xrotation Zrotation
    JOINT RightToe
    {
     OFFSET 0.000000 -4.965400 11.033500
     CHANNELS 3 Yrotation Xrotation Zrotation
     End Site
     {
      OFFSET 0.000000 -1.423100 5.872300
     }
    }
   }
  }
 }
 JOINT LeftHip
 {
  OFFSET 7.771700 -0.012900 -0.001300
  CHANNELS 3 Yrotation Xrotation Zrotation
  JOINT LeftKnee
  {
   OFFSET 0.000000 -40.869800 0.001200
   CHANNELS 3 Yrotation Xrotation Zrotation
   JOINT LeftAnkle
   {
    OFFSET 0.000000 -39.717900 0.002100
    CHANNELS 3 Yrotation Xrotation Zrotation
    JOINT LeftToe
    {
     OFFSET 0.000000 -4.965400 11.033500
     CHANNELS 3 Yrotation Xrotation Zrotation
     End Site
     {
      OFFSET 0.000000 -1.423100 5.872300
     }
    }
   }
  }
 }
}
MOTION
Frames: 12
Frame Time: 0.008333
0.000000 85.388000 0.000000 0.000000 -5.767877 0.000000 0.000000 11.653817 0.000000 0.000000 -5.885947 0.000000 0.000000 -0.000000 0.000000 0.000000 -0.000000 0.000000 0.000000 12.528835 0.000000 0.000000 0.711642 0.000000 0.000000 -0.000000 0.000000 0.000000 0.000000 -90.000000 0.000000 -2.309062 0.000000 0.000000 2.309062 0.000000 0.000000 -0.000000 0.000000 0.000000 -0.000000 90.000000 0.000000 -2.309062 0.000000 0.000000 2.309062 0.000000 0.000000 8.520406 0.000000 0.000000 1.905762 0.000000 -0.000000 -4.658285 0.000000 0.000000 -0.000000 0.000000 0.000000 8.520406 0.000000 0.000000 1.905762 0.000000 -0.000000 -4.658285 0.000000 0.000000 -0.000000 0.000000
-0.128868 50.142185 38.376434 172.865488 -31.045556 -6.196316 6.869693 20.958164 7.748119 0.753809 3.025969 0.757550 1.276190 4.898072 1.261087 5.322502 17.850312 5.302290 -2.974653 11.716289 0.017371 -5.659560 -13.959466 1.289594 1.775370 -3.169015 -4.735873 8.136005 -19.727188 -13.722683 -162.742654 -75.688998 148.516273 -9.105391 -7.944308 13.425527 -16.078577 -3.889065 -2.029188 -5.087407 -27.334554 9.993046 125.018059 -77.186912 -123.473594 36.376539 -7.553207 -2.881939 -1.247453 -49.590900 10.616806 -97.549113 82.431430 -85.525945 -0.393959 -10.448484 -5.436486 -0.204696 1.073160 -0.121247 -11.132135 -53.504597 16.131990 -161.402426 83.993604 -168.055137 0.094562 -13.576295 5.612786 -0.045587 -0.347169 -0.098230
-0.120380 50.138516 38.380474 172.829854 -31.003272 -6.217693 6.898017 20.911567 7.777884 0.739009 3.022752 0.751029 1.224481 4.874900 1.240544 5.284564 17.826057 5.283533 -2.936833 11.666528 0.023748 -5.632084 -14.070288 1.298745 1.755012 -3.197215 -4.727790 7.919621 -19.642997 -13.499892 -168.199148 -75.686292 153.924038 -9.011924 -8.184852 12.198950 -16.013440 -3.801454 -2.023772 -4.752075 -27.347938 10.005302 130.590583 -77.996024 -128.813252 36.079557 -9.103231 -1.260367 -1.327834 -49.622638 10.692267 -97.509440 82.456114 -85.496712 -0.319378 -10.478379 -5.446635 -0.264786 1.106259 -0.148074 -11.177190 -53.550161 16.216224 -161.528532 83.983566 -168.170604 0.089267 -13.556569 5.606807 -0.046517 -0.346936 -0.095193
-0.113688 50.135389 38.382671 172.815455 -30.964388 -6.239500 6.867751 20.880757 7.767056 0.759132 3.014186 0.759146 1.188955 4.848847 1.220398 5.255172 17.801053 5.266060 -2.913188 11.622933 0.043318 -5.597141 -14.151243 1.328399 1.694238 -3.229128 -4.717378 7.702243 -19.539324 -13.292130 -172.176997 -75.429658 157.944181 -9.044413 -8.418976 11.052263 -16.014770 -3.689770 -2.002600 -4.347891 -27.360332 10.025209 138.020054 -78.680363 -136.006777 35.732351 -10.624390 0.199959 -1.419126 -49.645632 10.748140 -97.443217 82.482322 -85.418194 -0.311337 -10.485894 -5.489687 -0.267768 1.103639 -0.138485 -11.240647 -53.593939 16.279181 -162.035154 83.982053 -168.663194 0.061324 -13.524349 5.588590 -0.046640 -0.335924 -0.085331
-0.107297 50.132853 38.383938 172.809413 -30.926643 -6.266281 6.801231 20.849912 7.724396 0.758908 2.996745 0.760531 1.208650 4.827183 1.220487 5.230696 17.770506 5.247437 -2.885694 11.596984 0.076108 -5.559684 -14.198792 1.380763 1.610656 -3.257459 -4.704403 7.468862 -19.413335 -13.098997 -174.619987 -75.005716 160.526316 -9.189883 -8.646901 9.938304 -15.991884 -3.605451 -1.984389 -3.980996 -27.297103 10.066272 147.310221 -79.103403 -145.026753 35.396477 -12.067173 1.412783 -1.519705 -49.662474 10.795538 -97.321680 82.482379 -85.244305 -0.368748 -10.461487 -5.584446 -0.155889 1.071472 -0.111134 -11.316144 -53.634553 16.354180 -162.253840 83.972569 -168.878837 0.051000 -13.490455 5.572583 -0.051617 -0.295129 -0.063210
-0.097724 50.128711 38.389588 172.776315 -30.862031 -6.305407 6.799766 20.776058 7.730969 0.746198 2.970656 0.744722 1.213539 4.806206 1.220301 5.213532 17.733677 5.228977 -2.857378 11.591192 0.121676 -5.525117 -14.208387 1.456234 1.498709 -3.285806 -4.689176 7.218975 -19.259905 -12.915224 -175.875805 -74.485468 161.998953 -9.432525 -8.872707 8.805747 -15.955321 -3.506715 -1.964411 -3.655379 -27.204750 10.124462 157.761386 -79.157224 -155.174064 35.098309 -13.427887 2.310428 -1.600086 -49.719883 10.890195 -97.272437 82.487829 -85.190802 -0.315041 -10.489135 -5.592185 -0.189617 1.103626 -0.133971 -11.434452 -53.696383 16.497977 -162.414559 83.958006 -169.043600 0.052960 -13.478488 5.547347 -0.054931 -0.286896 -0.054296
-0.094151 50.124097 38.394689 172.759563 -30.789428 -6.320508 6.802021 20.698892 7.735403 0.714632 2.924417 0.701473 1.219007 4.784227 1.221046 5.204649 17.689499 5.211721 -2.829735 11.608381 0.178558 -5.495682 -14.174879 1.552475 1.355068 -3.316160 -4.672432 6.963933 -19.069158 -12.736458 -176.522152 -73.919560 162.905632 -9.743677 -9.107441 7.593784 -15.938438 -3.387272 -1.938795 -3.329686 -27.101984 10.183139 168.382331 -78.801691 -165.481613 34.837665 -14.723145 2.896652 -1.704351 -49.771694 10.947312 -97.150834 82.517101 -85.090604 -0.246476 -10.509177 -5.588872 -0.245954 1.126258 -0.165865 -11.494800 -53.769982 16.570826 -162.470745 83.951357 -169.102896 0.056716 -13.472658 5.539599 -0.058085 -0.284817 -0.049793
-0.083705 50.122472 38.397662 172.722580 -30.739914 -6.367250 6.821045 20.616908 7.749622 0.720994 2.892312 0.696116 1.214731 4.751917 1.212816 5.202707 17.636821 5.196465 -2.800361 11.651995 0.245023 -5.465879 -14.091848 1.664901 1.191873 -3.349022 -4.659637 6.705679 -18.829097 -12.555774 -177.104657 -73.350714 163.745577 -10.073602 -9.369826 6.266132 -15.955704 -3.274974 -1.908920 -2.964698 -26.975565 10.222528 178.323901 -78.060609 -175.130962 34.622194 -15.966478 3.217688 -1.836914 -49.794500 11.055432 -96.978354 82.517641 -84.883988 -0.228906 -10.506109 -5.663810 -0.209959 1.120569 -0.155974 -11.587651 -53.813792 16.710286 -162.586683 83.934982 -169.214895 0.054715 -13.482117 5.525623 -0.057484 -0.260826 -0.043540
-0.077199 50.122335 38.397099 172.691856 -30.706985 -6.391813 6.824207 20.494556 7.698492 0.733566 2.907134 0.729625 1.211101 4.715134 1.204733 5.205674 17.574978 5.183966 -2.765555 11.727833 0.320308 -5.427888 -13.948796 1.790092 1.021654 -3.384209 -4.658842 6.452599 -18.529547 -12.361781 -177.980264 -72.803466 164.832206 -10.375480 -9.667207 4.840378 -15.966098 -3.232382 -1.854362 -2.567843 -26.776052 10.203424 -172.903599 -77.007854 176.342740 34.482438 -17.173285 3.323023 -1.925103 -49.806294 11.121933 -96.866044 82.511645 -84.750039 -0.210030 -10.508623 -5.693090 -0.187267 1.116504 -0.167269 -11.662996 -53.837416 16.808073 -162.621539 83.921345 -169.257636 0.064946 -13.493528 5.511531 -0.056972 -0.240637 -0.039689
-0.071366 50.121466 38.397701 172.676940 -30.661728 -6.420068 6.833748 20.391096 7.687919 0.731600 2.880414 0.724350 1.208122 4.673987 1.196505 5.213262 17.504105 5.173384 -2.723344 11.838323 0.402597 -5.377093 -13.741461 1.923679 0.848348 -3.417796 -4.676412 6.225088 -18.169745 -12.149505 -179.281208 -72.277294 166.267833 -10.610210 -9.983543 3.368207 -15.935292 -3.168969 -1.802269 -2.191625 -26.596251 10.166879 -165.524836 -75.719570 169.155336 34.433202 -18.349743 3.264740 -2.018658 -49.832287 11.181576 -96.779244 82.514295 -84.650973 -0.165926 -10.507372 -5.730411 -0.203585 1.111639 -0.163296 -11.764971 -53.873548 16.911032 -162.552115 83.905809 -169.201011 0.083420 -13.500860 5.494426 -0.057552 -0.223786 -0.036434
-0.065147 50.118461 38.402180 172.663514 -30.588742 -6.451306 6.840827 20.254486 7.678524 0.730335 2.851372 0.718889 1.206234 4.629264 1.187928 5.226863 17.425502 5.163748 -2.674919 11.976407 0.488372 -5.314466 -13.482962 2.059845 0.673143 -3.443080 -4.713054 6.030103 -17.757534 -11.923040 178.998551 -71.760351 168.035433 -10.746534 -10.296023 1.903920 -15.881683 -3.091629 -1.755574 -1.841677 -26.424815 10.141218 -159.673733 -74.279619 163.444203 34.446572 -19.493992 3.088968 -2.112189 -49.888949 11.243737 -96.691573 82.518165 -84.547288 -0.132121 -10.509853 -5.752784 -0.214920 1.113241 -0.170788 -11.933784 -53.933952 17.051786 -162.381272 83.889034 -169.056062 0.131732 -13.503501 5.461891 -0.053408 -0.209597 -0.037233
-0.062374 50.117156 38.402171 172.646260 -30.542003 -6.452209 6.849556 20.139941 7.645451 0.729993 2.821049 0.713275 1.205910 4.582419 1.179214 5.247634 17.341544 5.154739 -2.623268 12.129021 0.575072 -5.245105 -13.197649 2.195490 0.491768 -3.456515 -4.761283 5.864329 -17.303390 -11.689324 176.914450 -71.240848 170.088313 -10.764942 -10.586269 0.488281 -15.820994 -3.028040 -1.707167 -1.535138 -26.225212 10.148321 -155.300071 -72.784525 159.173161 34.489863 -20.595414 2.826851 -2.157228 -49.924319 11.260846 -96.642679 82.535255 -84.499162 -0.094117 -10.517268 -5.743731 -0.250709 1.118885 -0.191153 -12.022209 -53.970295 17.126459 -162.397626 83.880700 -169.102407 0.146059 -13.508451 5.450300 -0.055053 -0.199729 -0.037914
